<mxfile host="Electron" agent="Mozilla/5.0 (X11; Linux x86_64) AppleWebKit/537.36 (KHTML, like Gecko) draw.io/28.1.2 Chrome/138.0.7204.251 Electron/37.5.1 Safari/537.36" version="28.1.2">
  <diagram name="Page-1" id="byJbxcgciZiY1djFv74J">
    <mxGraphModel dx="2038" dy="700" grid="1" gridSize="10" guides="1" tooltips="1" connect="1" arrows="1" fold="1" page="1" pageScale="1" pageWidth="850" pageHeight="1100" math="0" shadow="0">
      <root>
        <mxCell id="0" />
        <mxCell id="1" parent="0" />
        <mxCell id="IVzPwI-o_UzwFTw5_D9--1" value="" style="rounded=0;whiteSpace=wrap;html=1;fillColor=#FFFFFF;" vertex="1" parent="1">
          <mxGeometry x="-80" y="220" width="1020" height="440" as="geometry" />
        </mxCell>
        <mxCell id="IVzPwI-o_UzwFTw5_D9--3" value="" style="image;html=1;image=img/lib/clip_art/networking/Router_Icon_128x128.png" vertex="1" parent="1">
          <mxGeometry x="620" y="260" width="100" height="100" as="geometry" />
        </mxCell>
        <mxCell id="IVzPwI-o_UzwFTw5_D9--4" value="" style="sketch=1;verticalLabelPosition=bottom;sketch=0;aspect=fixed;html=1;verticalAlign=top;align=center;outlineConnect=0;pointerEvents=1;shape=mxgraph.citrix2.citrix_remote_pc;curveFitting=1;jiggle=2;shadow=0;perimeterSpacing=0;" vertex="1" parent="1">
          <mxGeometry x="499.99999999999994" y="480" width="110.37" height="130" as="geometry" />
        </mxCell>
        <mxCell id="IVzPwI-o_UzwFTw5_D9--5" value="" style="sketch=0;verticalLabelPosition=bottom;sketch=0;aspect=fixed;html=1;verticalAlign=top;strokeColor=default;fillColor=#000000;align=center;outlineConnect=0;pointerEvents=1;shape=mxgraph.citrix2.citrix_remote_pc;" vertex="1" parent="1">
          <mxGeometry x="740" y="480" width="110.37" height="130" as="geometry" />
        </mxCell>
        <mxCell id="IVzPwI-o_UzwFTw5_D9--7" value="" style="fontColor=#0066CC;verticalAlign=top;verticalLabelPosition=bottom;labelPosition=center;align=center;html=1;outlineConnect=0;fillColor=#CCCCCC;strokeColor=#6881B3;gradientColor=none;gradientDirection=north;strokeWidth=2;shape=mxgraph.networks.pc;" vertex="1" parent="1">
          <mxGeometry x="-20" y="495" width="130" height="100" as="geometry" />
        </mxCell>
        <mxCell id="IVzPwI-o_UzwFTw5_D9--8" value="" style="fontColor=#0066CC;verticalAlign=top;verticalLabelPosition=bottom;labelPosition=center;align=center;html=1;outlineConnect=0;fillColor=#CCCCCC;strokeColor=#6881B3;gradientColor=none;gradientDirection=north;strokeWidth=2;shape=mxgraph.networks.pc;" vertex="1" parent="1">
          <mxGeometry x="270" y="500" width="130" height="100" as="geometry" />
        </mxCell>
        <mxCell id="IVzPwI-o_UzwFTw5_D9--9" value="" style="endArrow=none;html=1;rounded=0;strokeColor=#000000;strokeWidth=4;entryX=0.2;entryY=0.8;entryDx=0;entryDy=0;entryPerimeter=0;exitX=0.269;exitY=0;exitDx=0;exitDy=0;exitPerimeter=0;" edge="1" parent="1" source="IVzPwI-o_UzwFTw5_D9--7">
          <mxGeometry width="50" height="50" relative="1" as="geometry">
            <mxPoint x="80" y="450" as="sourcePoint" />
            <mxPoint x="150" y="340" as="targetPoint" />
          </mxGeometry>
        </mxCell>
        <mxCell id="IVzPwI-o_UzwFTw5_D9--10" value="" style="endArrow=none;html=1;rounded=0;strokeColor=#000000;strokeWidth=4;entryX=0.8;entryY=0.8;entryDx=0;entryDy=0;entryPerimeter=0;" edge="1" parent="1" source="IVzPwI-o_UzwFTw5_D9--8">
          <mxGeometry width="50" height="50" relative="1" as="geometry">
            <mxPoint x="210" y="495" as="sourcePoint" />
            <mxPoint x="210" y="340" as="targetPoint" />
          </mxGeometry>
        </mxCell>
        <mxCell id="IVzPwI-o_UzwFTw5_D9--11" value="" style="endArrow=none;html=1;rounded=0;strokeColor=#000000;strokeWidth=4;entryX=0.2;entryY=0.8;entryDx=0;entryDy=0;entryPerimeter=0;" edge="1" parent="1" target="IVzPwI-o_UzwFTw5_D9--3">
          <mxGeometry width="50" height="50" relative="1" as="geometry">
            <mxPoint x="600" y="505" as="sourcePoint" />
            <mxPoint x="650" y="330" as="targetPoint" />
          </mxGeometry>
        </mxCell>
        <mxCell id="IVzPwI-o_UzwFTw5_D9--12" value="" style="endArrow=none;html=1;rounded=0;strokeColor=#000000;strokeWidth=4;entryX=0.8;entryY=0.8;entryDx=0;entryDy=0;entryPerimeter=0;exitX=0.1;exitY=0.185;exitDx=0;exitDy=0;exitPerimeter=0;" edge="1" parent="1" source="IVzPwI-o_UzwFTw5_D9--5" target="IVzPwI-o_UzwFTw5_D9--3">
          <mxGeometry width="50" height="50" relative="1" as="geometry">
            <mxPoint x="710" y="500" as="sourcePoint" />
            <mxPoint x="789" y="345" as="targetPoint" />
          </mxGeometry>
        </mxCell>
        <mxCell id="IVzPwI-o_UzwFTw5_D9--13" value="" style="endArrow=none;html=1;rounded=0;strokeColor=#000000;strokeWidth=4;entryX=0;entryY=0.5;entryDx=0;entryDy=0;exitX=1;exitY=0.5;exitDx=0;exitDy=0;" edge="1" parent="1" target="IVzPwI-o_UzwFTw5_D9--3">
          <mxGeometry width="50" height="50" relative="1" as="geometry">
            <mxPoint x="230" y="310" as="sourcePoint" />
            <mxPoint x="399" y="320" as="targetPoint" />
          </mxGeometry>
        </mxCell>
        <mxCell id="IVzPwI-o_UzwFTw5_D9--15" value="&lt;font style=&quot;font-size: 20px; color: rgb(0, 0, 0);&quot;&gt;R3&lt;/font&gt;" style="text;html=1;align=center;verticalAlign=middle;whiteSpace=wrap;rounded=0;strokeColor=none;strokeWidth=0;dashed=1;dashPattern=8 8;" vertex="1" parent="1">
          <mxGeometry x="297" y="510" width="100" height="60" as="geometry" />
        </mxCell>
        <mxCell id="IVzPwI-o_UzwFTw5_D9--16" value="&lt;font style=&quot;font-size: 20px; color: rgb(0, 0, 0);&quot;&gt;R1&lt;/font&gt;" style="text;html=1;align=center;verticalAlign=middle;whiteSpace=wrap;rounded=0;strokeColor=none;strokeWidth=0;dashed=1;dashPattern=8 8;" vertex="1" parent="1">
          <mxGeometry x="7" y="505" width="100" height="60" as="geometry" />
        </mxCell>
        <mxCell id="IVzPwI-o_UzwFTw5_D9--17" value="&lt;font style=&quot;font-size: 20px; color: rgb(0, 0, 0);&quot;&gt;S1&lt;/font&gt;" style="text;html=1;align=center;verticalAlign=middle;whiteSpace=wrap;rounded=0;strokeColor=none;strokeWidth=0;dashed=1;dashPattern=8 8;" vertex="1" parent="1">
          <mxGeometry x="506" y="540" width="100" height="30" as="geometry" />
        </mxCell>
        <mxCell id="IVzPwI-o_UzwFTw5_D9--18" value="&lt;font style=&quot;font-size: 20px; color: rgb(0, 0, 0);&quot;&gt;S2&lt;/font&gt;" style="text;html=1;align=center;verticalAlign=middle;whiteSpace=wrap;rounded=0;strokeColor=none;strokeWidth=0;dashed=1;dashPattern=8 8;" vertex="1" parent="1">
          <mxGeometry x="745" y="540" width="100" height="30" as="geometry" />
        </mxCell>
        <mxCell id="IVzPwI-o_UzwFTw5_D9--19" value="&lt;font style=&quot;font-size: 20px; color: rgb(0, 0, 0);&quot;&gt;R2&lt;/font&gt;" style="text;html=1;align=center;verticalAlign=middle;whiteSpace=wrap;rounded=0;strokeColor=none;strokeWidth=0;dashed=1;dashPattern=8 8;" vertex="1" parent="1">
          <mxGeometry x="620" y="250" width="100" height="30" as="geometry" />
        </mxCell>
        <mxCell id="IVzPwI-o_UzwFTw5_D9--20" value="&lt;font style=&quot;font-size: 20px; color: rgb(0, 0, 0);&quot;&gt;cloud&lt;/font&gt;" style="text;html=1;align=center;verticalAlign=middle;whiteSpace=wrap;rounded=0;strokeColor=none;strokeWidth=0;dashed=1;dashPattern=8 8;" vertex="1" parent="1">
          <mxGeometry x="130" y="250" width="100" height="30" as="geometry" />
        </mxCell>
        <mxCell id="IVzPwI-o_UzwFTw5_D9--21" value="&lt;font style=&quot;color: rgb(0, 0, 0); font-size: 18px;&quot;&gt;eth1&lt;/font&gt;" style="text;html=1;align=center;verticalAlign=middle;whiteSpace=wrap;rounded=0;strokeColor=#000000;dashed=1;" vertex="1" parent="1">
          <mxGeometry x="-20" y="450" width="40" height="30" as="geometry" />
        </mxCell>
        <mxCell id="IVzPwI-o_UzwFTw5_D9--22" value="&lt;font style=&quot;color: rgb(0, 0, 0); font-size: 18px;&quot;&gt;eth1&lt;/font&gt;" style="text;html=1;align=center;verticalAlign=middle;whiteSpace=wrap;rounded=0;strokeColor=#000000;dashed=1;" vertex="1" parent="1">
          <mxGeometry x="243" y="467" width="40" height="30" as="geometry" />
        </mxCell>
        <mxCell id="IVzPwI-o_UzwFTw5_D9--23" value="&lt;font style=&quot;color: rgb(0, 0, 0); font-size: 18px;&quot;&gt;eth1&lt;/font&gt;" style="text;html=1;align=center;verticalAlign=middle;whiteSpace=wrap;rounded=0;strokeColor=#000000;dashed=1;" vertex="1" parent="1">
          <mxGeometry x="610.37" y="480" width="40" height="30" as="geometry" />
        </mxCell>
        <mxCell id="IVzPwI-o_UzwFTw5_D9--24" value="&lt;font style=&quot;color: rgb(0, 0, 0); font-size: 18px;&quot;&gt;eth1&lt;/font&gt;" style="text;html=1;align=center;verticalAlign=middle;whiteSpace=wrap;rounded=0;strokeColor=#000000;dashed=1;" vertex="1" parent="1">
          <mxGeometry x="700" y="480" width="40" height="30" as="geometry" />
        </mxCell>
        <mxCell id="IVzPwI-o_UzwFTw5_D9--25" value="&lt;font style=&quot;color: rgb(0, 0, 0); font-size: 18px;&quot;&gt;eth1&lt;/font&gt;" style="text;html=1;align=center;verticalAlign=middle;whiteSpace=wrap;rounded=0;strokeColor=#000000;dashed=1;" vertex="1" parent="1">
          <mxGeometry x="580" y="280" width="40" height="30" as="geometry" />
        </mxCell>
        <mxCell id="IVzPwI-o_UzwFTw5_D9--26" value="&lt;font style=&quot;color: rgb(0, 0, 0); font-size: 18px;&quot;&gt;eth1&lt;/font&gt;" style="text;html=1;align=center;verticalAlign=middle;whiteSpace=wrap;rounded=0;strokeColor=#000000;dashed=1;" vertex="1" parent="1">
          <mxGeometry x="90" y="320" width="40" height="30" as="geometry" />
        </mxCell>
        <mxCell id="IVzPwI-o_UzwFTw5_D9--27" value="" style="image;aspect=fixed;perimeter=ellipsePerimeter;html=1;align=center;shadow=0;dashed=0;spacingTop=3;image=img/lib/active_directory/wiring_hub.svg;" vertex="1" parent="1">
          <mxGeometry x="120" y="276" width="108.82" height="74" as="geometry" />
        </mxCell>
        <mxCell id="IVzPwI-o_UzwFTw5_D9--28" value="&lt;font style=&quot;color: rgb(0, 0, 0); font-size: 18px;&quot;&gt;eth2&lt;/font&gt;" style="text;html=1;align=center;verticalAlign=middle;whiteSpace=wrap;rounded=0;strokeColor=#000000;dashed=1;" vertex="1" parent="1">
          <mxGeometry x="228.82" y="280" width="40" height="30" as="geometry" />
        </mxCell>
        <mxCell id="IVzPwI-o_UzwFTw5_D9--29" value="&lt;font style=&quot;color: rgb(0, 0, 0); font-size: 18px;&quot;&gt;eth2&lt;/font&gt;" style="text;html=1;align=center;verticalAlign=middle;whiteSpace=wrap;rounded=0;strokeColor=#000000;dashed=1;" vertex="1" parent="1">
          <mxGeometry x="590" y="330" width="40" height="30" as="geometry" />
        </mxCell>
        <mxCell id="IVzPwI-o_UzwFTw5_D9--30" value="&lt;font style=&quot;color: rgb(0, 0, 0); font-size: 18px;&quot;&gt;eth3&lt;/font&gt;" style="text;html=1;align=center;verticalAlign=middle;whiteSpace=wrap;rounded=0;strokeColor=#000000;dashed=1;" vertex="1" parent="1">
          <mxGeometry x="710" y="330" width="40" height="30" as="geometry" />
        </mxCell>
        <mxCell id="IVzPwI-o_UzwFTw5_D9--31" value="&lt;font style=&quot;color: rgb(0, 0, 0); font-size: 18px;&quot;&gt;eth3&lt;/font&gt;" style="text;html=1;align=center;verticalAlign=middle;whiteSpace=wrap;rounded=0;strokeColor=#000000;dashed=1;" vertex="1" parent="1">
          <mxGeometry x="230" y="340" width="40" height="30" as="geometry" />
        </mxCell>
        <mxCell id="IVzPwI-o_UzwFTw5_D9--32" value="&lt;font style=&quot;font-size: 15px; color: rgb(0, 0, 0);&quot;&gt;10.0.13.1/24&lt;/font&gt;" style="text;html=1;align=center;verticalAlign=middle;whiteSpace=wrap;rounded=0;dashed=1;dashPattern=1 4;strokeColor=#000000;" vertex="1" parent="1">
          <mxGeometry x="30" y="470" width="90" height="30" as="geometry" />
        </mxCell>
        <mxCell id="IVzPwI-o_UzwFTw5_D9--33" value="&lt;font style=&quot;font-size: 15px; color: rgb(0, 0, 0);&quot;&gt;10.0.13.3/24&lt;/font&gt;" style="text;html=1;align=center;verticalAlign=middle;whiteSpace=wrap;rounded=0;dashed=1;dashPattern=1 4;strokeColor=#000000;" vertex="1" parent="1">
          <mxGeometry x="310" y="470" width="90" height="30" as="geometry" />
        </mxCell>
        <mxCell id="IVzPwI-o_UzwFTw5_D9--36" value="&lt;font style=&quot;font-size: 15px; color: rgb(0, 0, 0);&quot;&gt;10.0.13.2/24&lt;/font&gt;" style="text;html=1;align=center;verticalAlign=middle;whiteSpace=wrap;rounded=0;dashed=1;dashPattern=1 4;strokeColor=#000000;" vertex="1" parent="1">
          <mxGeometry x="480" y="310" width="90" height="30" as="geometry" />
        </mxCell>
        <mxCell id="IVzPwI-o_UzwFTw5_D9--37" value="&lt;font style=&quot;font-size: 15px; color: rgb(0, 0, 0);&quot;&gt;10.0.4.0/24&lt;/font&gt;" style="text;html=1;align=center;verticalAlign=middle;whiteSpace=wrap;rounded=0;dashed=1;dashPattern=1 4;strokeColor=none;rotation=-75;" vertex="1" parent="1">
          <mxGeometry x="560.37" y="400" width="90" height="30" as="geometry" />
        </mxCell>
        <mxCell id="IVzPwI-o_UzwFTw5_D9--38" value="&lt;font style=&quot;font-size: 15px; color: rgb(0, 0, 0);&quot;&gt;10.0.6.0/24&lt;/font&gt;" style="text;html=1;align=center;verticalAlign=middle;whiteSpace=wrap;rounded=0;dashed=1;dashPattern=1 4;strokeColor=none;rotation=70;" vertex="1" parent="1">
          <mxGeometry x="697.9957444239494" y="399.99894785954586" width="90" height="30" as="geometry" />
        </mxCell>
        <mxCell id="IVzPwI-o_UzwFTw5_D9--39" value="&lt;font style=&quot;color: rgb(0, 0, 0); font-size: 15px;&quot;&gt;.2&lt;/font&gt;" style="text;html=1;align=center;verticalAlign=middle;whiteSpace=wrap;rounded=0;strokeColor=none;dashed=1;" vertex="1" parent="1">
          <mxGeometry x="640" y="345" width="20" height="20" as="geometry" />
        </mxCell>
        <mxCell id="IVzPwI-o_UzwFTw5_D9--40" value="&lt;font style=&quot;color: rgb(0, 0, 0); font-size: 15px;&quot;&gt;.2&lt;/font&gt;" style="text;html=1;align=center;verticalAlign=middle;whiteSpace=wrap;rounded=0;strokeColor=none;dashed=1;" vertex="1" parent="1">
          <mxGeometry x="680" y="345" width="20" height="20" as="geometry" />
        </mxCell>
        <mxCell id="IVzPwI-o_UzwFTw5_D9--41" value="&lt;font style=&quot;color: rgb(0, 0, 0); font-size: 15px;&quot;&gt;.254&lt;/font&gt;" style="text;html=1;align=center;verticalAlign=middle;whiteSpace=wrap;rounded=0;strokeColor=none;dashed=1;" vertex="1" parent="1">
          <mxGeometry x="570" y="467" width="30" height="20" as="geometry" />
        </mxCell>
        <mxCell id="IVzPwI-o_UzwFTw5_D9--42" value="&lt;font style=&quot;color: rgb(0, 0, 0); font-size: 15px;&quot;&gt;.254&lt;/font&gt;" style="text;html=1;align=center;verticalAlign=middle;whiteSpace=wrap;rounded=0;strokeColor=none;dashed=1;" vertex="1" parent="1">
          <mxGeometry x="747" y="467" width="30" height="20" as="geometry" />
        </mxCell>
      </root>
    </mxGraphModel>
  </diagram>
</mxfile>
